<?xml version="1.0" standalone="no"?>
<!DOCTYPE svg PUBLIC "-//W3C//DTD SVG 20010904//EN"
 "http://www.w3.org/TR/2001/REC-SVG-20010904/DTD/svg10.dtd">
<svg version="1.0" xmlns="http://www.w3.org/2000/svg"
 width="700.000000pt" height="700.000000pt" viewBox="0 0 700.000000 700.000000"
 preserveAspectRatio="xMidYMid meet">
<metadata>
Created by potrace 1.11, written by Peter Selinger 2001-2013
</metadata>
<g transform="translate(0.000000,700.000000) scale(0.100000,-0.100000)"
fill="#000000" stroke="none">
<path d="M3337 6274 c-1 0 -49 -4 -107 -8 -58 -3 -118 -8 -135 -10 -16 -3 -50
-7 -75 -10 -206 -22 -507 -92 -753 -175 -82 -27 -154 -54 -160 -59 -7 -5 -34
-17 -62 -27 -68 -25 -248 -115 -375 -188 -437 -252 -814 -628 -1009 -1007 -24
-47 -47 -89 -51 -95 -10 -14 -84 -210 -105 -277 -34 -110 -2 -203 83 -244 35
-17 179 -18 2917 -18 l2880 0 43 23 c47 24 78 67 89 121 18 99 -124 444 -279
675 -88 129 -166 222 -308 366 -183 186 -370 328 -615 469 -60 35 -117 69
-125 75 -8 7 -37 20 -65 30 -27 10 -54 22 -60 26 -5 4 -57 26 -115 49 -58 23
-118 48 -135 55 -16 7 -87 31 -158 54 -361 115 -717 172 -1105 175 -117 1
-213 1 -215 0z"/>
<path d="M432 3979 c-247 -63 -415 -277 -416 -529 0 -152 53 -280 163 -390 74
-74 170 -127 271 -150 80 -19 6017 -19 6105 0 170 36 315 150 386 307 88 192
62 411 -69 572 -56 68 -71 81 -143 126 -53 33 -107 56 -168 72 -14 4 -1383 8
-3041 9 -2911 2 -3018 1 -3088 -17z"/>
<path d="M595 2656 c-65 -29 -105 -88 -105 -155 0 -102 69 -171 175 -177 28
-2 52 -3 55 -3 4 -1 5 -184 1 -201 0 -3 -23 -6 -50 -7 -95 -3 -164 -58 -179
-144 -9 -54 -8 -733 2 -808 10 -82 15 -99 58 -188 65 -134 197 -254 331 -299
62 -21 66 -22 142 -32 78 -9 4937 -8 4990 2 223 41 405 196 474 404 30 90 33
134 33 533 -1 355 -2 379 -20 415 -34 66 -81 93 -168 98 l-49 2 -1 112 c-1 75
3 112 10 113 6 0 31 2 56 3 169 10 232 222 93 316 l-37 25 -2890 2 c-2396 2
-2896 0 -2921 -11z"/>
</g>
</svg>
